<svg width="362" height="356" viewBox="0 0 362 356" fill="none" xmlns="http://www.w3.org/2000/svg">
<rect x="289.6" width="72.4" height="72.4" fill="#3521B5"/>
<rect x="217.2" y="72.4" width="72.4" height="72.4" fill="#3521B5"/>
<rect x="144.8" y="144.8" width="72.4" height="72.4" fill="#3521B5"/>
<rect x="144.8" y="217.2" width="72.4" height="72.4" fill="#3521B5"/>
<rect x="144.8" y="286.645" width="72.4" height="72.4" fill="#3521B5"/>
<rect x="217.2" y="144.8" width="72.4" height="72.4" fill="#3521B5"/>
<rect x="217.2" y="217.2" width="72.4" height="72.4" fill="#3521B5"/>
<rect x="217.2" y="286.645" width="72.4" height="72.4" fill="#3521B5"/>
<rect y="286.645" width="72.4" height="72.4" fill="#3521B5"/>
<rect x="289.6" y="144.8" width="72.4" height="72.4" fill="#3521B5"/>
<rect x="289.6" y="217.2" width="72.4" height="72.4" fill="#3521B5"/>
<rect x="289.6" y="286.645" width="72.4" height="72.4" fill="#3521B5"/>
<rect x="72.3999" y="217.2" width="72.4" height="72.4" fill="#3521B5"/>
<rect x="72.3999" y="286.645" width="72.4" height="72.4" fill="#3521B5"/>
<rect x="289.6" y="72.4" width="72.4" height="72.4" fill="#3521B5"/>
</svg>
