<svg width="230" height="143" viewBox="0 0 230 143" fill="none" xmlns="http://www.w3.org/2000/svg">
<circle cx="5.07353" cy="5.07353" r="5.07353" fill="#3521B5"/>
<circle cx="5.07353" cy="49.0441" r="5.07353" fill="#3521B5"/>
<circle cx="49.0442" cy="5.07353" r="5.07353" fill="#3521B5"/>
<circle cx="49.0442" cy="49.0441" r="5.07353" fill="#3521B5"/>
<circle cx="93.0147" cy="5.07353" r="5.07353" fill="#3521B5"/>
<circle cx="93.0147" cy="49.0441" r="5.07353" fill="#3521B5"/>
<circle cx="136.985" cy="5.07353" r="5.07353" fill="#3521B5"/>
<circle cx="136.985" cy="49.0441" r="5.07353" fill="#3521B5"/>
<circle cx="180.956" cy="5.07353" r="5.07353" fill="#3521B5"/>
<circle cx="180.956" cy="49.0441" r="5.07353" fill="#3521B5"/>
<circle cx="224.927" cy="5.07353" r="5.07353" fill="#3521B5"/>
<circle cx="224.927" cy="49.0441" r="5.07353" fill="#3521B5"/>
<circle cx="5.07353" cy="93.0147" r="5.07353" fill="#3521B5"/>
<circle cx="5.07353" cy="136.985" r="5.07353" fill="#3521B5"/>
<circle cx="49.0442" cy="93.0147" r="5.07353" fill="#3521B5"/>
<circle cx="49.0442" cy="136.985" r="5.07353" fill="#3521B5"/>
<circle cx="93.0147" cy="93.0147" r="5.07353" fill="#3521B5"/>
<circle cx="93.0147" cy="136.985" r="5.07353" fill="#3521B5"/>
<circle cx="136.985" cy="93.0147" r="5.07353" fill="#3521B5"/>
<circle cx="136.985" cy="136.985" r="5.07353" fill="#3521B5"/>
<circle cx="180.956" cy="93.0147" r="5.07353" fill="#3521B5"/>
<circle cx="180.956" cy="136.985" r="5.07353" fill="#3521B5"/>
<circle cx="224.927" cy="93.0147" r="5.07353" fill="#3521B5"/>
<circle cx="224.927" cy="136.985" r="5.07353" fill="#3521B5"/>
</svg>
